<svg xmlns="http://www.w3.org/2000/svg" width="1200" height="1200" viewBox="0 0 1200 1200" version="1.1">
<defs>
  <style>
    .sq-border { stroke: #000000; stroke-width: 1.5; }
    .sq-text { font-family: Arial, sans-serif; font-size: 11px; font-weight: bold; text-anchor: middle; dominant-baseline: central; fill: #000000; }
    .sq-text-white { font-family: Arial, sans-serif; font-size: 11px; font-weight: bold; text-anchor: middle; dominant-baseline: central; fill: #ffffff; }
  </style>
</defs>
<rect width="1200" height="1200" fill="#f5eedc" />
<polygon points="814.30,82.63 1117.37,385.70 1117.37,814.30 814.30,1117.37 385.70,1117.37 82.63,814.30 82.63,385.70 385.70,82.63" fill="#ffffff" stroke="#2c1d11" stroke-width="6" id="path1" />
<polygon points="600.00,600.00 636.35,512.23 687.77,563.65" fill="#ffff00" stroke="#000000" stroke-width="2" id="meta_amarillo" />
<polygon points="600.00,600.00 687.77,563.65 687.77,636.35" fill="#0066ff" stroke="#000000" stroke-width="2" id="meta_azul" />
<polygon points="600.00,600.00 687.77,636.35 636.35,687.77" fill="#ff0000" stroke="#000000" stroke-width="2" id="meta_rojo" />
<polygon points="600.00,600.00 636.35,687.77 563.65,687.77" fill="#00cc00" stroke="#000000" stroke-width="2" id="meta_verde" />
<polygon points="600.00,600.00 563.65,687.77 512.23,636.35" fill="#808080" stroke="#000000" stroke-width="2" id="meta_gris" />
<polygon points="600.00,600.00 512.23,636.35 512.23,563.65" fill="#cc00cc" stroke="#000000" stroke-width="2" id="meta_violeta" />
<polygon points="600.00,600.00 512.23,563.65 563.65,512.23" fill="#ff8000" stroke="#000000" stroke-width="2" id="meta_naranja" />
<polygon points="600.00,600.00 563.65,512.23 636.35,512.23" fill="#00cccc" stroke="#000000" stroke-width="2" id="meta_cyan" />
<g transform="translate(600.00, 600.00) rotate(-90.00)">
<rect x="95.00" y="-39.00" width="208.00" height="78.00" fill="#ffffff" stroke="#000000" stroke-width="2" />
<rect x="95.00" y="-13.00" width="26.00" height="26.00" fill="#ffff00" class="sq-border" id="casilla_amarillo_1" />
<text x="108.00" y="0" class="sq-text">1</text>
<rect x="95.00" y="-39.00" width="26.00" height="26.00" fill="#ffffff" class="sq-border" id="casilla_9" />
<text x="108.00" y="-26.00" class="sq-text">9</text>
<rect x="95.00" y="13.00" width="26.00" height="26.00" fill="#ffffff" class="sq-border" id="casilla_14" />
<text x="108.00" y="26.00" class="sq-text">14</text>
<rect x="121.00" y="-13.00" width="26.00" height="26.00" fill="#ffff00" class="sq-border" id="casilla_amarillo_2" />
<text x="134.00" y="0" class="sq-text">2</text>
<rect x="121.00" y="-39.00" width="26.00" height="26.00" fill="#ffffff" class="sq-border" id="casilla_8" />
<text x="134.00" y="-26.00" class="sq-text">8</text>
<rect x="121.00" y="13.00" width="26.00" height="26.00" fill="#ffffff" class="sq-border" id="casilla_15" />
<text x="134.00" y="26.00" class="sq-text">15</text>
<rect x="147.00" y="-13.00" width="26.00" height="26.00" fill="#ffff00" class="sq-border" id="casilla_amarillo_3" />
<text x="160.00" y="0" class="sq-text">3</text>
<rect x="147.00" y="-39.00" width="26.00" height="26.00" fill="#ffffff" class="sq-border" id="casilla_7" />
<text x="160.00" y="-26.00" class="sq-text">7</text>
<rect x="147.00" y="13.00" width="26.00" height="26.00" fill="#ffffff" class="sq-border" id="casilla_16" />
<text x="160.00" y="26.00" class="sq-text">16</text>
<rect x="173.00" y="-13.00" width="26.00" height="26.00" fill="#ffff00" class="sq-border" id="casilla_amarillo_4" />
<text x="186.00" y="0" class="sq-text">4</text>
<rect x="173.00" y="-39.00" width="26.00" height="26.00" fill="#ffffff" class="sq-border" id="casilla_6" />
<text x="186.00" y="-26.00" class="sq-text">6</text>
<rect x="173.00" y="13.00" width="26.00" height="26.00" fill="#ffffff" class="sq-border" id="casilla_17" />
<text x="186.00" y="26.00" class="sq-text">17</text>
<rect x="199.00" y="-13.00" width="26.00" height="26.00" fill="#ffff00" class="sq-border" id="casilla_amarillo_5" />
<text x="212.00" y="0" class="sq-text">5</text>
<rect x="199.00" y="-39.00" width="26.00" height="26.00" fill="#ffff00" class="sq-border" id="casilla_5" />
<text x="212.00" y="-26.00" class="sq-text">5</text>
<rect x="199.00" y="13.00" width="26.00" height="26.00" fill="#ffffff" class="sq-border" id="casilla_18" />
<text x="212.00" y="26.00" class="sq-text">18</text>
<rect x="225.00" y="-13.00" width="26.00" height="26.00" fill="#ffff00" class="sq-border" id="casilla_amarillo_6" />
<text x="238.00" y="0" class="sq-text">6</text>
<rect x="225.00" y="-39.00" width="26.00" height="26.00" fill="#ffffff" class="sq-border" id="casilla_2" />
<text x="238.00" y="-26.00" class="sq-text">2</text>
<rect x="225.00" y="13.00" width="26.00" height="26.00" fill="#ffffff" class="sq-border" id="casilla_19" />
<text x="238.00" y="26.00" class="sq-text">19</text>
<rect x="251.00" y="-13.00" width="26.00" height="26.00" fill="#ffff00" class="sq-border" id="casilla_amarillo_7" />
<text x="264.00" y="0" class="sq-text">7</text>
<rect x="251.00" y="-39.00" width="26.00" height="26.00" fill="#ffffff" class="sq-border" id="casilla_3" />
<text x="264.00" y="-26.00" class="sq-text">3</text>
<rect x="251.00" y="13.00" width="26.00" height="26.00" fill="#ffffff" class="sq-border" id="casilla_20" />
<text x="264.00" y="26.00" class="sq-text">20</text>
<rect x="277.00" y="-13.00" width="26.00" height="26.00" fill="#ffffff" class="sq-border" />
<rect x="277.00" y="-39.00" width="26.00" height="26.00" fill="#ffffff" class="sq-border" id="casilla_4" />
<text x="290.00" y="-26.00" class="sq-text">4</text>
<rect x="277.00" y="13.00" width="26.00" height="26.00" fill="#ffffff" class="sq-border" id="casilla_21" />
<text x="290.00" y="26.00" class="sq-text">21</text>
<g transform="translate(256.20, -94.00)">
  <rect x="-42" y="-42" width="84" height="84" rx="16" ry="16" fill="#ffff00" stroke="#000000" stroke-width="3" id="cu_yellow" />
  <circle cx="0" cy="0" r="36" fill="#ffffff" stroke="#000000" stroke-width="2" />
  <circle cx="-18" cy="-18" r="12" fill="#ffff00" stroke="#000000" stroke-width="2" />
  <circle cx="-18" cy="-18" r="8" fill="#ffffff" stroke="#000000" stroke-width="1" />
  <circle cx="18" cy="-18" r="12" fill="#ffff00" stroke="#000000" stroke-width="2" />
  <circle cx="18" cy="-18" r="8" fill="#ffffff" stroke="#000000" stroke-width="1" />
  <circle cx="-18" cy="18" r="12" fill="#ffff00" stroke="#000000" stroke-width="2" />
  <circle cx="-18" cy="18" r="8" fill="#ffffff" stroke="#000000" stroke-width="1" />
  <circle cx="18" cy="18" r="12" fill="#ffff00" stroke="#000000" stroke-width="2" />
  <circle cx="18" cy="18" r="8" fill="#ffffff" stroke="#000000" stroke-width="1" />
</g>
</g>
<g transform="translate(600.00, 600.00) rotate(-45.00)">
<rect x="95.00" y="-39.00" width="208.00" height="78.00" fill="#ffffff" stroke="#000000" stroke-width="2" />
<rect x="95.00" y="-13.00" width="26.00" height="26.00" fill="#0066ff" class="sq-border" id="casilla_azul_1" />
<text x="108.00" y="0" class="sq-text-white">1</text>
<rect x="95.00" y="-39.00" width="26.00" height="26.00" fill="#ffffff" class="sq-border" id="casilla_26" />
<text x="108.00" y="-26.00" class="sq-text">26</text>
<rect x="95.00" y="13.00" width="26.00" height="26.00" fill="#ffffff" class="sq-border" id="casilla_31" />
<text x="108.00" y="26.00" class="sq-text">31</text>
<rect x="121.00" y="-13.00" width="26.00" height="26.00" fill="#0066ff" class="sq-border" id="casilla_azul_2" />
<text x="134.00" y="0" class="sq-text-white">2</text>
<rect x="121.00" y="-39.00" width="26.00" height="26.00" fill="#ffffff" class="sq-border" id="casilla_25" />
<text x="134.00" y="-26.00" class="sq-text">25</text>
<rect x="121.00" y="13.00" width="26.00" height="26.00" fill="#ffffff" class="sq-border" id="casilla_32" />
<text x="134.00" y="26.00" class="sq-text">32</text>
<rect x="147.00" y="-13.00" width="26.00" height="26.00" fill="#0066ff" class="sq-border" id="casilla_azul_3" />
<text x="160.00" y="0" class="sq-text-white">3</text>
<rect x="147.00" y="-39.00" width="26.00" height="26.00" fill="#ffffff" class="sq-border" id="casilla_24" />
<text x="160.00" y="-26.00" class="sq-text">24</text>
<rect x="147.00" y="13.00" width="26.00" height="26.00" fill="#ffffff" class="sq-border" id="casilla_33" />
<text x="160.00" y="26.00" class="sq-text">33</text>
<rect x="173.00" y="-13.00" width="26.00" height="26.00" fill="#0066ff" class="sq-border" id="casilla_azul_4" />
<text x="186.00" y="0" class="sq-text-white">4</text>
<rect x="173.00" y="-39.00" width="26.00" height="26.00" fill="#ffffff" class="sq-border" id="casilla_23" />
<text x="186.00" y="-26.00" class="sq-text">23</text>
<rect x="173.00" y="13.00" width="26.00" height="26.00" fill="#ffffff" class="sq-border" id="casilla_34" />
<text x="186.00" y="26.00" class="sq-text">34</text>
<rect x="199.00" y="-13.00" width="26.00" height="26.00" fill="#0066ff" class="sq-border" id="casilla_azul_5" />
<text x="212.00" y="0" class="sq-text-white">5</text>
<rect x="199.00" y="-39.00" width="26.00" height="26.00" fill="#0066ff" class="sq-border" id="casilla_22" />
<text x="212.00" y="-26.00" class="sq-text-white">22</text>
<rect x="199.00" y="13.00" width="26.00" height="26.00" fill="#ffffff" class="sq-border" id="casilla_35" />
<text x="212.00" y="26.00" class="sq-text">35</text>
<rect x="225.00" y="-13.00" width="26.00" height="26.00" fill="#0066ff" class="sq-border" id="casilla_azul_6" />
<text x="238.00" y="0" class="sq-text-white">6</text>
<rect x="225.00" y="-39.00" width="26.00" height="26.00" fill="#ffffff" class="sq-border" id="casilla_19" />
<text x="238.00" y="-26.00" class="sq-text">19</text>
<rect x="225.00" y="13.00" width="26.00" height="26.00" fill="#ffffff" class="sq-border" id="casilla_36" />
<text x="238.00" y="26.00" class="sq-text">36</text>
<rect x="251.00" y="-13.00" width="26.00" height="26.00" fill="#0066ff" class="sq-border" id="casilla_azul_7" />
<text x="264.00" y="0" class="sq-text-white">7</text>
<rect x="251.00" y="-39.00" width="26.00" height="26.00" fill="#ffffff" class="sq-border" id="casilla_20" />
<text x="264.00" y="-26.00" class="sq-text">20</text>
<rect x="251.00" y="13.00" width="26.00" height="26.00" fill="#ffffff" class="sq-border" id="casilla_37" />
<text x="264.00" y="26.00" class="sq-text">37</text>
<rect x="277.00" y="-13.00" width="26.00" height="26.00" fill="#ffffff" class="sq-border" />
<rect x="277.00" y="-39.00" width="26.00" height="26.00" fill="#ffffff" class="sq-border" id="casilla_21" />
<text x="290.00" y="-26.00" class="sq-text">21</text>
<rect x="277.00" y="13.00" width="26.00" height="26.00" fill="#ffffff" class="sq-border" id="casilla_38" />
<text x="290.00" y="26.00" class="sq-text">38</text>
<g transform="translate(256.20, -94.00)">
  <rect x="-42" y="-42" width="84" height="84" rx="16" ry="16" fill="#0066ff" stroke="#000000" stroke-width="3" id="cu_blue" />
  <circle cx="0" cy="0" r="36" fill="#ffffff" stroke="#000000" stroke-width="2" />
  <circle cx="-18" cy="-18" r="12" fill="#0066ff" stroke="#000000" stroke-width="2" />
  <circle cx="-18" cy="-18" r="8" fill="#ffffff" stroke="#000000" stroke-width="1" />
  <circle cx="18" cy="-18" r="12" fill="#0066ff" stroke="#000000" stroke-width="2" />
  <circle cx="18" cy="-18" r="8" fill="#ffffff" stroke="#000000" stroke-width="1" />
  <circle cx="-18" cy="18" r="12" fill="#0066ff" stroke="#000000" stroke-width="2" />
  <circle cx="-18" cy="18" r="8" fill="#ffffff" stroke="#000000" stroke-width="1" />
  <circle cx="18" cy="18" r="12" fill="#0066ff" stroke="#000000" stroke-width="2" />
  <circle cx="18" cy="18" r="8" fill="#ffffff" stroke="#000000" stroke-width="1" />
</g>
</g>
<g transform="translate(600.00, 600.00) rotate(0.00)">
<rect x="95.00" y="-39.00" width="208.00" height="78.00" fill="#ffffff" stroke="#000000" stroke-width="2" />
<rect x="95.00" y="-13.00" width="26.00" height="26.00" fill="#ff0000" class="sq-border" id="casilla_rojo_1" />
<text x="108.00" y="0" class="sq-text-white">1</text>
<rect x="95.00" y="-39.00" width="26.00" height="26.00" fill="#ffffff" class="sq-border" id="casilla_43" />
<text x="108.00" y="-26.00" class="sq-text">43</text>
<rect x="95.00" y="13.00" width="26.00" height="26.00" fill="#ffffff" class="sq-border" id="casilla_48" />
<text x="108.00" y="26.00" class="sq-text">48</text>
<rect x="121.00" y="-13.00" width="26.00" height="26.00" fill="#ff0000" class="sq-border" id="casilla_rojo_2" />
<text x="134.00" y="0" class="sq-text-white">2</text>
<rect x="121.00" y="-39.00" width="26.00" height="26.00" fill="#ffffff" class="sq-border" id="casilla_42" />
<text x="134.00" y="-26.00" class="sq-text">42</text>
<rect x="121.00" y="13.00" width="26.00" height="26.00" fill="#ffffff" class="sq-border" id="casilla_49" />
<text x="134.00" y="26.00" class="sq-text">49</text>
<rect x="147.00" y="-13.00" width="26.00" height="26.00" fill="#ff0000" class="sq-border" id="casilla_rojo_3" />
<text x="160.00" y="0" class="sq-text-white">3</text>
<rect x="147.00" y="-39.00" width="26.00" height="26.00" fill="#ffffff" class="sq-border" id="casilla_41" />
<text x="160.00" y="-26.00" class="sq-text">41</text>
<rect x="147.00" y="13.00" width="26.00" height="26.00" fill="#ffffff" class="sq-border" id="casilla_50" />
<text x="160.00" y="26.00" class="sq-text">50</text>
<rect x="173.00" y="-13.00" width="26.00" height="26.00" fill="#ff0000" class="sq-border" id="casilla_rojo_4" />
<text x="186.00" y="0" class="sq-text-white">4</text>
<rect x="173.00" y="-39.00" width="26.00" height="26.00" fill="#ffffff" class="sq-border" id="casilla_40" />
<text x="186.00" y="-26.00" class="sq-text">40</text>
<rect x="173.00" y="13.00" width="26.00" height="26.00" fill="#ffffff" class="sq-border" id="casilla_51" />
<text x="186.00" y="26.00" class="sq-text">51</text>
<rect x="199.00" y="-13.00" width="26.00" height="26.00" fill="#ff0000" class="sq-border" id="casilla_rojo_5" />
<text x="212.00" y="0" class="sq-text-white">5</text>
<rect x="199.00" y="-39.00" width="26.00" height="26.00" fill="#ff0000" class="sq-border" id="casilla_39" />
<text x="212.00" y="-26.00" class="sq-text-white">39</text>
<rect x="199.00" y="13.00" width="26.00" height="26.00" fill="#ffffff" class="sq-border" id="casilla_52" />
<text x="212.00" y="26.00" class="sq-text">52</text>
<rect x="225.00" y="-13.00" width="26.00" height="26.00" fill="#ff0000" class="sq-border" id="casilla_rojo_6" />
<text x="238.00" y="0" class="sq-text-white">6</text>
<rect x="225.00" y="-39.00" width="26.00" height="26.00" fill="#ffffff" class="sq-border" id="casilla_36" />
<text x="238.00" y="-26.00" class="sq-text">36</text>
<rect x="225.00" y="13.00" width="26.00" height="26.00" fill="#ffffff" class="sq-border" id="casilla_53" />
<text x="238.00" y="26.00" class="sq-text">53</text>
<rect x="251.00" y="-13.00" width="26.00" height="26.00" fill="#ff0000" class="sq-border" id="casilla_rojo_7" />
<text x="264.00" y="0" class="sq-text-white">7</text>
<rect x="251.00" y="-39.00" width="26.00" height="26.00" fill="#ffffff" class="sq-border" id="casilla_37" />
<text x="264.00" y="-26.00" class="sq-text">37</text>
<rect x="251.00" y="13.00" width="26.00" height="26.00" fill="#ffffff" class="sq-border" id="casilla_54" />
<text x="264.00" y="26.00" class="sq-text">54</text>
<rect x="277.00" y="-13.00" width="26.00" height="26.00" fill="#ffffff" class="sq-border" />
<rect x="277.00" y="-39.00" width="26.00" height="26.00" fill="#ffffff" class="sq-border" id="casilla_38" />
<text x="290.00" y="-26.00" class="sq-text">38</text>
<rect x="277.00" y="13.00" width="26.00" height="26.00" fill="#ffffff" class="sq-border" id="casilla_55" />
<text x="290.00" y="26.00" class="sq-text">55</text>
<g transform="translate(256.20, -94.00)">
  <rect x="-42" y="-42" width="84" height="84" rx="16" ry="16" fill="#ff0000" stroke="#000000" stroke-width="3" id="cu_red" />
  <circle cx="0" cy="0" r="36" fill="#ffffff" stroke="#000000" stroke-width="2" />
  <circle cx="-18" cy="-18" r="12" fill="#ff0000" stroke="#000000" stroke-width="2" />
  <circle cx="-18" cy="-18" r="8" fill="#ffffff" stroke="#000000" stroke-width="1" />
  <circle cx="18" cy="-18" r="12" fill="#ff0000" stroke="#000000" stroke-width="2" />
  <circle cx="18" cy="-18" r="8" fill="#ffffff" stroke="#000000" stroke-width="1" />
  <circle cx="-18" cy="18" r="12" fill="#ff0000" stroke="#000000" stroke-width="2" />
  <circle cx="-18" cy="18" r="8" fill="#ffffff" stroke="#000000" stroke-width="1" />
  <circle cx="18" cy="18" r="12" fill="#ff0000" stroke="#000000" stroke-width="2" />
  <circle cx="18" cy="18" r="8" fill="#ffffff" stroke="#000000" stroke-width="1" />
</g>
</g>
<g transform="translate(600.00, 600.00) rotate(45.00)">
<rect x="95.00" y="-39.00" width="208.00" height="78.00" fill="#ffffff" stroke="#000000" stroke-width="2" />
<rect x="95.00" y="-13.00" width="26.00" height="26.00" fill="#00cc00" class="sq-border" id="casilla_verde_1" />
<text x="108.00" y="0" class="sq-text-white">1</text>
<rect x="95.00" y="-39.00" width="26.00" height="26.00" fill="#ffffff" class="sq-border" id="casilla_60" />
<text x="108.00" y="-26.00" class="sq-text">60</text>
<rect x="95.00" y="13.00" width="26.00" height="26.00" fill="#ffffff" class="sq-border" id="casilla_65" />
<text x="108.00" y="26.00" class="sq-text">65</text>
<rect x="121.00" y="-13.00" width="26.00" height="26.00" fill="#00cc00" class="sq-border" id="casilla_verde_2" />
<text x="134.00" y="0" class="sq-text-white">2</text>
<rect x="121.00" y="-39.00" width="26.00" height="26.00" fill="#ffffff" class="sq-border" id="casilla_59" />
<text x="134.00" y="-26.00" class="sq-text">59</text>
<rect x="121.00" y="13.00" width="26.00" height="26.00" fill="#ffffff" class="sq-border" id="casilla_66" />
<text x="134.00" y="26.00" class="sq-text">66</text>
<rect x="147.00" y="-13.00" width="26.00" height="26.00" fill="#00cc00" class="sq-border" id="casilla_verde_3" />
<text x="160.00" y="0" class="sq-text-white">3</text>
<rect x="147.00" y="-39.00" width="26.00" height="26.00" fill="#ffffff" class="sq-border" id="casilla_58" />
<text x="160.00" y="-26.00" class="sq-text">58</text>
<rect x="147.00" y="13.00" width="26.00" height="26.00" fill="#ffffff" class="sq-border" id="casilla_67" />
<text x="160.00" y="26.00" class="sq-text">67</text>
<rect x="173.00" y="-13.00" width="26.00" height="26.00" fill="#00cc00" class="sq-border" id="casilla_verde_4" />
<text x="186.00" y="0" class="sq-text-white">4</text>
<rect x="173.00" y="-39.00" width="26.00" height="26.00" fill="#ffffff" class="sq-border" id="casilla_57" />
<text x="186.00" y="-26.00" class="sq-text">57</text>
<rect x="173.00" y="13.00" width="26.00" height="26.00" fill="#ffffff" class="sq-border" id="casilla_68" />
<text x="186.00" y="26.00" class="sq-text">68</text>
<rect x="199.00" y="-13.00" width="26.00" height="26.00" fill="#00cc00" class="sq-border" id="casilla_verde_5" />
<text x="212.00" y="0" class="sq-text-white">5</text>
<rect x="199.00" y="-39.00" width="26.00" height="26.00" fill="#00cc00" class="sq-border" id="casilla_56" />
<text x="212.00" y="-26.00" class="sq-text-white">56</text>
<rect x="199.00" y="13.00" width="26.00" height="26.00" fill="#ffffff" class="sq-border" id="casilla_69" />
<text x="212.00" y="26.00" class="sq-text">69</text>
<rect x="225.00" y="-13.00" width="26.00" height="26.00" fill="#00cc00" class="sq-border" id="casilla_verde_6" />
<text x="238.00" y="0" class="sq-text-white">6</text>
<rect x="225.00" y="-39.00" width="26.00" height="26.00" fill="#ffffff" class="sq-border" id="casilla_53" />
<text x="238.00" y="-26.00" class="sq-text">53</text>
<rect x="225.00" y="13.00" width="26.00" height="26.00" fill="#ffffff" class="sq-border" id="casilla_70" />
<text x="238.00" y="26.00" class="sq-text">70</text>
<rect x="251.00" y="-13.00" width="26.00" height="26.00" fill="#00cc00" class="sq-border" id="casilla_verde_7" />
<text x="264.00" y="0" class="sq-text-white">7</text>
<rect x="251.00" y="-39.00" width="26.00" height="26.00" fill="#ffffff" class="sq-border" id="casilla_54" />
<text x="264.00" y="-26.00" class="sq-text">54</text>
<rect x="251.00" y="13.00" width="26.00" height="26.00" fill="#ffffff" class="sq-border" id="casilla_71" />
<text x="264.00" y="26.00" class="sq-text">71</text>
<rect x="277.00" y="-13.00" width="26.00" height="26.00" fill="#ffffff" class="sq-border" />
<rect x="277.00" y="-39.00" width="26.00" height="26.00" fill="#ffffff" class="sq-border" id="casilla_55" />
<text x="290.00" y="-26.00" class="sq-text">55</text>
<rect x="277.00" y="13.00" width="26.00" height="26.00" fill="#ffffff" class="sq-border" id="casilla_72" />
<text x="290.00" y="26.00" class="sq-text">72</text>
<g transform="translate(256.20, -94.00)">
  <rect x="-42" y="-42" width="84" height="84" rx="16" ry="16" fill="#00cc00" stroke="#000000" stroke-width="3" id="cu_green" />
  <circle cx="0" cy="0" r="36" fill="#ffffff" stroke="#000000" stroke-width="2" />
  <circle cx="-18" cy="-18" r="12" fill="#00cc00" stroke="#000000" stroke-width="2" />
  <circle cx="-18" cy="-18" r="8" fill="#ffffff" stroke="#000000" stroke-width="1" />
  <circle cx="18" cy="-18" r="12" fill="#00cc00" stroke="#000000" stroke-width="2" />
  <circle cx="18" cy="-18" r="8" fill="#ffffff" stroke="#000000" stroke-width="1" />
  <circle cx="-18" cy="18" r="12" fill="#00cc00" stroke="#000000" stroke-width="2" />
  <circle cx="-18" cy="18" r="8" fill="#ffffff" stroke="#000000" stroke-width="1" />
  <circle cx="18" cy="18" r="12" fill="#00cc00" stroke="#000000" stroke-width="2" />
  <circle cx="18" cy="18" r="8" fill="#ffffff" stroke="#000000" stroke-width="1" />
</g>
</g>
<g transform="translate(600.00, 600.00) rotate(90.00)">
<rect x="95.00" y="-39.00" width="208.00" height="78.00" fill="#ffffff" stroke="#000000" stroke-width="2" />
<rect x="95.00" y="-13.00" width="26.00" height="26.00" fill="#808080" class="sq-border" id="casilla_gris_1" />
<text x="108.00" y="0" class="sq-text-white">1</text>
<rect x="95.00" y="-39.00" width="26.00" height="26.00" fill="#ffffff" class="sq-border" id="casilla_77" />
<text x="108.00" y="-26.00" class="sq-text">77</text>
<rect x="95.00" y="13.00" width="26.00" height="26.00" fill="#ffffff" class="sq-border" id="casilla_82" />
<text x="108.00" y="26.00" class="sq-text">82</text>
<rect x="121.00" y="-13.00" width="26.00" height="26.00" fill="#808080" class="sq-border" id="casilla_gris_2" />
<text x="134.00" y="0" class="sq-text-white">2</text>
<rect x="121.00" y="-39.00" width="26.00" height="26.00" fill="#ffffff" class="sq-border" id="casilla_76" />
<text x="134.00" y="-26.00" class="sq-text">76</text>
<rect x="121.00" y="13.00" width="26.00" height="26.00" fill="#ffffff" class="sq-border" id="casilla_83" />
<text x="134.00" y="26.00" class="sq-text">83</text>
<rect x="147.00" y="-13.00" width="26.00" height="26.00" fill="#808080" class="sq-border" id="casilla_gris_3" />
<text x="160.00" y="0" class="sq-text-white">3</text>
<rect x="147.00" y="-39.00" width="26.00" height="26.00" fill="#ffffff" class="sq-border" id="casilla_75" />
<text x="160.00" y="-26.00" class="sq-text">75</text>
<rect x="147.00" y="13.00" width="26.00" height="26.00" fill="#ffffff" class="sq-border" id="casilla_84" />
<text x="160.00" y="26.00" class="sq-text">84</text>
<rect x="173.00" y="-13.00" width="26.00" height="26.00" fill="#808080" class="sq-border" id="casilla_gris_4" />
<text x="186.00" y="0" class="sq-text-white">4</text>
<rect x="173.00" y="-39.00" width="26.00" height="26.00" fill="#ffffff" class="sq-border" id="casilla_74" />
<text x="186.00" y="-26.00" class="sq-text">74</text>
<rect x="173.00" y="13.00" width="26.00" height="26.00" fill="#ffffff" class="sq-border" id="casilla_85" />
<text x="186.00" y="26.00" class="sq-text">85</text>
<rect x="199.00" y="-13.00" width="26.00" height="26.00" fill="#808080" class="sq-border" id="casilla_gris_5" />
<text x="212.00" y="0" class="sq-text-white">5</text>
<rect x="199.00" y="-39.00" width="26.00" height="26.00" fill="#808080" class="sq-border" id="casilla_73" />
<text x="212.00" y="-26.00" class="sq-text-white">73</text>
<rect x="199.00" y="13.00" width="26.00" height="26.00" fill="#ffffff" class="sq-border" id="casilla_86" />
<text x="212.00" y="26.00" class="sq-text">86</text>
<rect x="225.00" y="-13.00" width="26.00" height="26.00" fill="#808080" class="sq-border" id="casilla_gris_6" />
<text x="238.00" y="0" class="sq-text-white">6</text>
<rect x="225.00" y="-39.00" width="26.00" height="26.00" fill="#ffffff" class="sq-border" id="casilla_70" />
<text x="238.00" y="-26.00" class="sq-text">70</text>
<rect x="225.00" y="13.00" width="26.00" height="26.00" fill="#ffffff" class="sq-border" id="casilla_87" />
<text x="238.00" y="26.00" class="sq-text">87</text>
<rect x="251.00" y="-13.00" width="26.00" height="26.00" fill="#808080" class="sq-border" id="casilla_gris_7" />
<text x="264.00" y="0" class="sq-text-white">7</text>
<rect x="251.00" y="-39.00" width="26.00" height="26.00" fill="#ffffff" class="sq-border" id="casilla_71" />
<text x="264.00" y="-26.00" class="sq-text">71</text>
<rect x="251.00" y="13.00" width="26.00" height="26.00" fill="#ffffff" class="sq-border" id="casilla_88" />
<text x="264.00" y="26.00" class="sq-text">88</text>
<rect x="277.00" y="-13.00" width="26.00" height="26.00" fill="#ffffff" class="sq-border" />
<rect x="277.00" y="-39.00" width="26.00" height="26.00" fill="#ffffff" class="sq-border" id="casilla_72" />
<text x="290.00" y="-26.00" class="sq-text">72</text>
<rect x="277.00" y="13.00" width="26.00" height="26.00" fill="#ffffff" class="sq-border" id="casilla_89" />
<text x="290.00" y="26.00" class="sq-text">89</text>
<g transform="translate(256.20, -94.00)">
  <rect x="-42" y="-42" width="84" height="84" rx="16" ry="16" fill="#808080" stroke="#000000" stroke-width="3" id="cu_grey" />
  <circle cx="0" cy="0" r="36" fill="#ffffff" stroke="#000000" stroke-width="2" />
  <circle cx="-18" cy="-18" r="12" fill="#808080" stroke="#000000" stroke-width="2" />
  <circle cx="-18" cy="-18" r="8" fill="#ffffff" stroke="#000000" stroke-width="1" />
  <circle cx="18" cy="-18" r="12" fill="#808080" stroke="#000000" stroke-width="2" />
  <circle cx="18" cy="-18" r="8" fill="#ffffff" stroke="#000000" stroke-width="1" />
  <circle cx="-18" cy="18" r="12" fill="#808080" stroke="#000000" stroke-width="2" />
  <circle cx="-18" cy="18" r="8" fill="#ffffff" stroke="#000000" stroke-width="1" />
  <circle cx="18" cy="18" r="12" fill="#808080" stroke="#000000" stroke-width="2" />
  <circle cx="18" cy="18" r="8" fill="#ffffff" stroke="#000000" stroke-width="1" />
</g>
</g>
<g transform="translate(600.00, 600.00) rotate(135.00)">
<rect x="95.00" y="-39.00" width="208.00" height="78.00" fill="#ffffff" stroke="#000000" stroke-width="2" />
<rect x="95.00" y="-13.00" width="26.00" height="26.00" fill="#cc00cc" class="sq-border" id="casilla_violeta_1" />
<text x="108.00" y="0" class="sq-text-white">1</text>
<rect x="95.00" y="-39.00" width="26.00" height="26.00" fill="#ffffff" class="sq-border" id="casilla_94" />
<text x="108.00" y="-26.00" class="sq-text">94</text>
<rect x="95.00" y="13.00" width="26.00" height="26.00" fill="#ffffff" class="sq-border" id="casilla_99" />
<text x="108.00" y="26.00" class="sq-text">99</text>
<rect x="121.00" y="-13.00" width="26.00" height="26.00" fill="#cc00cc" class="sq-border" id="casilla_violeta_2" />
<text x="134.00" y="0" class="sq-text-white">2</text>
<rect x="121.00" y="-39.00" width="26.00" height="26.00" fill="#ffffff" class="sq-border" id="casilla_93" />
<text x="134.00" y="-26.00" class="sq-text">93</text>
<rect x="121.00" y="13.00" width="26.00" height="26.00" fill="#ffffff" class="sq-border" id="casilla_100" />
<text x="134.00" y="26.00" class="sq-text">100</text>
<rect x="147.00" y="-13.00" width="26.00" height="26.00" fill="#cc00cc" class="sq-border" id="casilla_violeta_3" />
<text x="160.00" y="0" class="sq-text-white">3</text>
<rect x="147.00" y="-39.00" width="26.00" height="26.00" fill="#ffffff" class="sq-border" id="casilla_92" />
<text x="160.00" y="-26.00" class="sq-text">92</text>
<rect x="147.00" y="13.00" width="26.00" height="26.00" fill="#ffffff" class="sq-border" id="casilla_101" />
<text x="160.00" y="26.00" class="sq-text">101</text>
<rect x="173.00" y="-13.00" width="26.00" height="26.00" fill="#cc00cc" class="sq-border" id="casilla_violeta_4" />
<text x="186.00" y="0" class="sq-text-white">4</text>
<rect x="173.00" y="-39.00" width="26.00" height="26.00" fill="#ffffff" class="sq-border" id="casilla_91" />
<text x="186.00" y="-26.00" class="sq-text">91</text>
<rect x="173.00" y="13.00" width="26.00" height="26.00" fill="#ffffff" class="sq-border" id="casilla_102" />
<text x="186.00" y="26.00" class="sq-text">102</text>
<rect x="199.00" y="-13.00" width="26.00" height="26.00" fill="#cc00cc" class="sq-border" id="casilla_violeta_5" />
<text x="212.00" y="0" class="sq-text-white">5</text>
<rect x="199.00" y="-39.00" width="26.00" height="26.00" fill="#cc00cc" class="sq-border" id="casilla_90" />
<text x="212.00" y="-26.00" class="sq-text-white">90</text>
<rect x="199.00" y="13.00" width="26.00" height="26.00" fill="#ffffff" class="sq-border" id="casilla_103" />
<text x="212.00" y="26.00" class="sq-text">103</text>
<rect x="225.00" y="-13.00" width="26.00" height="26.00" fill="#cc00cc" class="sq-border" id="casilla_violeta_6" />
<text x="238.00" y="0" class="sq-text-white">6</text>
<rect x="225.00" y="-39.00" width="26.00" height="26.00" fill="#ffffff" class="sq-border" id="casilla_87" />
<text x="238.00" y="-26.00" class="sq-text">87</text>
<rect x="225.00" y="13.00" width="26.00" height="26.00" fill="#ffffff" class="sq-border" id="casilla_104" />
<text x="238.00" y="26.00" class="sq-text">104</text>
<rect x="251.00" y="-13.00" width="26.00" height="26.00" fill="#cc00cc" class="sq-border" id="casilla_violeta_7" />
<text x="264.00" y="0" class="sq-text-white">7</text>
<rect x="251.00" y="-39.00" width="26.00" height="26.00" fill="#ffffff" class="sq-border" id="casilla_88" />
<text x="264.00" y="-26.00" class="sq-text">88</text>
<rect x="251.00" y="13.00" width="26.00" height="26.00" fill="#ffffff" class="sq-border" id="casilla_105" />
<text x="264.00" y="26.00" class="sq-text">105</text>
<rect x="277.00" y="-13.00" width="26.00" height="26.00" fill="#ffffff" class="sq-border" />
<rect x="277.00" y="-39.00" width="26.00" height="26.00" fill="#ffffff" class="sq-border" id="casilla_89" />
<text x="290.00" y="-26.00" class="sq-text">89</text>
<rect x="277.00" y="13.00" width="26.00" height="26.00" fill="#ffffff" class="sq-border" id="casilla_106" />
<text x="290.00" y="26.00" class="sq-text">106</text>
<g transform="translate(256.20, -94.00)">
  <rect x="-42" y="-42" width="84" height="84" rx="16" ry="16" fill="#cc00cc" stroke="#000000" stroke-width="3" id="cu_violet" />
  <circle cx="0" cy="0" r="36" fill="#ffffff" stroke="#000000" stroke-width="2" />
  <circle cx="-18" cy="-18" r="12" fill="#cc00cc" stroke="#000000" stroke-width="2" />
  <circle cx="-18" cy="-18" r="8" fill="#ffffff" stroke="#000000" stroke-width="1" />
  <circle cx="18" cy="-18" r="12" fill="#cc00cc" stroke="#000000" stroke-width="2" />
  <circle cx="18" cy="-18" r="8" fill="#ffffff" stroke="#000000" stroke-width="1" />
  <circle cx="-18" cy="18" r="12" fill="#cc00cc" stroke="#000000" stroke-width="2" />
  <circle cx="-18" cy="18" r="8" fill="#ffffff" stroke="#000000" stroke-width="1" />
  <circle cx="18" cy="18" r="12" fill="#cc00cc" stroke="#000000" stroke-width="2" />
  <circle cx="18" cy="18" r="8" fill="#ffffff" stroke="#000000" stroke-width="1" />
</g>
</g>
<g transform="translate(600.00, 600.00) rotate(180.00)">
<rect x="95.00" y="-39.00" width="208.00" height="78.00" fill="#ffffff" stroke="#000000" stroke-width="2" />
<rect x="95.00" y="-13.00" width="26.00" height="26.00" fill="#ff8000" class="sq-border" id="casilla_naranja_1" />
<text x="108.00" y="0" class="sq-text-white">1</text>
<rect x="95.00" y="-39.00" width="26.00" height="26.00" fill="#ffffff" class="sq-border" id="casilla_111" />
<text x="108.00" y="-26.00" class="sq-text">111</text>
<rect x="95.00" y="13.00" width="26.00" height="26.00" fill="#ffffff" class="sq-border" id="casilla_116" />
<text x="108.00" y="26.00" class="sq-text">116</text>
<rect x="121.00" y="-13.00" width="26.00" height="26.00" fill="#ff8000" class="sq-border" id="casilla_naranja_2" />
<text x="134.00" y="0" class="sq-text-white">2</text>
<rect x="121.00" y="-39.00" width="26.00" height="26.00" fill="#ffffff" class="sq-border" id="casilla_110" />
<text x="134.00" y="-26.00" class="sq-text">110</text>
<rect x="121.00" y="13.00" width="26.00" height="26.00" fill="#ffffff" class="sq-border" id="casilla_117" />
<text x="134.00" y="26.00" class="sq-text">117</text>
<rect x="147.00" y="-13.00" width="26.00" height="26.00" fill="#ff8000" class="sq-border" id="casilla_naranja_3" />
<text x="160.00" y="0" class="sq-text-white">3</text>
<rect x="147.00" y="-39.00" width="26.00" height="26.00" fill="#ffffff" class="sq-border" id="casilla_109" />
<text x="160.00" y="-26.00" class="sq-text">109</text>
<rect x="147.00" y="13.00" width="26.00" height="26.00" fill="#ffffff" class="sq-border" id="casilla_118" />
<text x="160.00" y="26.00" class="sq-text">118</text>
<rect x="173.00" y="-13.00" width="26.00" height="26.00" fill="#ff8000" class="sq-border" id="casilla_naranja_4" />
<text x="186.00" y="0" class="sq-text-white">4</text>
<rect x="173.00" y="-39.00" width="26.00" height="26.00" fill="#ffffff" class="sq-border" id="casilla_108" />
<text x="186.00" y="-26.00" class="sq-text">108</text>
<rect x="173.00" y="13.00" width="26.00" height="26.00" fill="#ffffff" class="sq-border" id="casilla_119" />
<text x="186.00" y="26.00" class="sq-text">119</text>
<rect x="199.00" y="-13.00" width="26.00" height="26.00" fill="#ff8000" class="sq-border" id="casilla_naranja_5" />
<text x="212.00" y="0" class="sq-text-white">5</text>
<rect x="199.00" y="-39.00" width="26.00" height="26.00" fill="#ff8000" class="sq-border" id="casilla_107" />
<text x="212.00" y="-26.00" class="sq-text-white">107</text>
<rect x="199.00" y="13.00" width="26.00" height="26.00" fill="#ffffff" class="sq-border" id="casilla_120" />
<text x="212.00" y="26.00" class="sq-text">120</text>
<rect x="225.00" y="-13.00" width="26.00" height="26.00" fill="#ff8000" class="sq-border" id="casilla_naranja_6" />
<text x="238.00" y="0" class="sq-text-white">6</text>
<rect x="225.00" y="-39.00" width="26.00" height="26.00" fill="#ffffff" class="sq-border" id="casilla_104" />
<text x="238.00" y="-26.00" class="sq-text">104</text>
<rect x="225.00" y="13.00" width="26.00" height="26.00" fill="#ffffff" class="sq-border" id="casilla_121" />
<text x="238.00" y="26.00" class="sq-text">121</text>
<rect x="251.00" y="-13.00" width="26.00" height="26.00" fill="#ff8000" class="sq-border" id="casilla_naranja_7" />
<text x="264.00" y="0" class="sq-text-white">7</text>
<rect x="251.00" y="-39.00" width="26.00" height="26.00" fill="#ffffff" class="sq-border" id="casilla_105" />
<text x="264.00" y="-26.00" class="sq-text">105</text>
<rect x="251.00" y="13.00" width="26.00" height="26.00" fill="#ffffff" class="sq-border" id="casilla_122" />
<text x="264.00" y="26.00" class="sq-text">122</text>
<rect x="277.00" y="-13.00" width="26.00" height="26.00" fill="#ffffff" class="sq-border" />
<rect x="277.00" y="-39.00" width="26.00" height="26.00" fill="#ffffff" class="sq-border" id="casilla_106" />
<text x="290.00" y="-26.00" class="sq-text">106</text>
<rect x="277.00" y="13.00" width="26.00" height="26.00" fill="#ffffff" class="sq-border" id="casilla_123" />
<text x="290.00" y="26.00" class="sq-text">123</text>
<g transform="translate(256.20, -94.00)">
  <rect x="-42" y="-42" width="84" height="84" rx="16" ry="16" fill="#ff8000" stroke="#000000" stroke-width="3" id="cu_orange" />
  <circle cx="0" cy="0" r="36" fill="#ffffff" stroke="#000000" stroke-width="2" />
  <circle cx="-18" cy="-18" r="12" fill="#ff8000" stroke="#000000" stroke-width="2" />
  <circle cx="-18" cy="-18" r="8" fill="#ffffff" stroke="#000000" stroke-width="1" />
  <circle cx="18" cy="-18" r="12" fill="#ff8000" stroke="#000000" stroke-width="2" />
  <circle cx="18" cy="-18" r="8" fill="#ffffff" stroke="#000000" stroke-width="1" />
  <circle cx="-18" cy="18" r="12" fill="#ff8000" stroke="#000000" stroke-width="2" />
  <circle cx="-18" cy="18" r="8" fill="#ffffff" stroke="#000000" stroke-width="1" />
  <circle cx="18" cy="18" r="12" fill="#ff8000" stroke="#000000" stroke-width="2" />
  <circle cx="18" cy="18" r="8" fill="#ffffff" stroke="#000000" stroke-width="1" />
</g>
</g>
<g transform="translate(600.00, 600.00) rotate(225.00)">
<rect x="95.00" y="-39.00" width="208.00" height="78.00" fill="#ffffff" stroke="#000000" stroke-width="2" />
<rect x="95.00" y="-13.00" width="26.00" height="26.00" fill="#00cccc" class="sq-border" id="casilla_cyan_1" />
<text x="108.00" y="0" class="sq-text">1</text>
<rect x="95.00" y="-39.00" width="26.00" height="26.00" fill="#ffffff" class="sq-border" id="casilla_128" />
<text x="108.00" y="-26.00" class="sq-text">128</text>
<rect x="95.00" y="13.00" width="26.00" height="26.00" fill="#ffffff" class="sq-border" id="casilla_133" />
<text x="108.00" y="26.00" class="sq-text">133</text>
<rect x="121.00" y="-13.00" width="26.00" height="26.00" fill="#00cccc" class="sq-border" id="casilla_cyan_2" />
<text x="134.00" y="0" class="sq-text">2</text>
<rect x="121.00" y="-39.00" width="26.00" height="26.00" fill="#ffffff" class="sq-border" id="casilla_127" />
<text x="134.00" y="-26.00" class="sq-text">127</text>
<rect x="121.00" y="13.00" width="26.00" height="26.00" fill="#ffffff" class="sq-border" id="casilla_134" />
<text x="134.00" y="26.00" class="sq-text">134</text>
<rect x="147.00" y="-13.00" width="26.00" height="26.00" fill="#00cccc" class="sq-border" id="casilla_cyan_3" />
<text x="160.00" y="0" class="sq-text">3</text>
<rect x="147.00" y="-39.00" width="26.00" height="26.00" fill="#ffffff" class="sq-border" id="casilla_126" />
<text x="160.00" y="-26.00" class="sq-text">126</text>
<rect x="147.00" y="13.00" width="26.00" height="26.00" fill="#ffffff" class="sq-border" id="casilla_135" />
<text x="160.00" y="26.00" class="sq-text">135</text>
<rect x="173.00" y="-13.00" width="26.00" height="26.00" fill="#00cccc" class="sq-border" id="casilla_cyan_4" />
<text x="186.00" y="0" class="sq-text">4</text>
<rect x="173.00" y="-39.00" width="26.00" height="26.00" fill="#ffffff" class="sq-border" id="casilla_125" />
<text x="186.00" y="-26.00" class="sq-text">125</text>
<rect x="173.00" y="13.00" width="26.00" height="26.00" fill="#ffffff" class="sq-border" id="casilla_136" />
<text x="186.00" y="26.00" class="sq-text">136</text>
<rect x="199.00" y="-13.00" width="26.00" height="26.00" fill="#00cccc" class="sq-border" id="casilla_cyan_5" />
<text x="212.00" y="0" class="sq-text">5</text>
<rect x="199.00" y="-39.00" width="26.00" height="26.00" fill="#00cccc" class="sq-border" id="casilla_124" />
<text x="212.00" y="-26.00" class="sq-text">124</text>
<rect x="199.00" y="13.00" width="26.00" height="26.00" fill="#ffffff" class="sq-border" id="casilla_1" />
<text x="212.00" y="26.00" class="sq-text">1</text>
<rect x="225.00" y="-13.00" width="26.00" height="26.00" fill="#00cccc" class="sq-border" id="casilla_cyan_6" />
<text x="238.00" y="0" class="sq-text">6</text>
<rect x="225.00" y="-39.00" width="26.00" height="26.00" fill="#ffffff" class="sq-border" id="casilla_121" />
<text x="238.00" y="-26.00" class="sq-text">121</text>
<rect x="225.00" y="13.00" width="26.00" height="26.00" fill="#ffffff" class="sq-border" id="casilla_2" />
<text x="238.00" y="26.00" class="sq-text">2</text>
<rect x="251.00" y="-13.00" width="26.00" height="26.00" fill="#00cccc" class="sq-border" id="casilla_cyan_7" />
<text x="264.00" y="0" class="sq-text">7</text>
<rect x="251.00" y="-39.00" width="26.00" height="26.00" fill="#ffffff" class="sq-border" id="casilla_122" />
<text x="264.00" y="-26.00" class="sq-text">122</text>
<rect x="251.00" y="13.00" width="26.00" height="26.00" fill="#ffffff" class="sq-border" id="casilla_3" />
<text x="264.00" y="26.00" class="sq-text">3</text>
<rect x="277.00" y="-13.00" width="26.00" height="26.00" fill="#ffffff" class="sq-border" />
<rect x="277.00" y="-39.00" width="26.00" height="26.00" fill="#ffffff" class="sq-border" id="casilla_123" />
<text x="290.00" y="-26.00" class="sq-text">123</text>
<rect x="277.00" y="13.00" width="26.00" height="26.00" fill="#ffffff" class="sq-border" id="casilla_4" />
<text x="290.00" y="26.00" class="sq-text">4</text>
<g transform="translate(256.20, -94.00)">
  <rect x="-42" y="-42" width="84" height="84" rx="16" ry="16" fill="#00cccc" stroke="#000000" stroke-width="3" id="cu_cyan" />
  <circle cx="0" cy="0" r="36" fill="#ffffff" stroke="#000000" stroke-width="2" />
  <circle cx="-18" cy="-18" r="12" fill="#00cccc" stroke="#000000" stroke-width="2" />
  <circle cx="-18" cy="-18" r="8" fill="#ffffff" stroke="#000000" stroke-width="1" />
  <circle cx="18" cy="-18" r="12" fill="#00cccc" stroke="#000000" stroke-width="2" />
  <circle cx="18" cy="-18" r="8" fill="#ffffff" stroke="#000000" stroke-width="1" />
  <circle cx="-18" cy="18" r="12" fill="#00cccc" stroke="#000000" stroke-width="2" />
  <circle cx="-18" cy="18" r="8" fill="#ffffff" stroke="#000000" stroke-width="1" />
  <circle cx="18" cy="18" r="12" fill="#00cccc" stroke="#000000" stroke-width="2" />
  <circle cx="18" cy="18" r="8" fill="#ffffff" stroke="#000000" stroke-width="1" />
</g>
</g>
<g transform="translate(720.93, 308.05)">
  <rect x="-13" y="-13" width="26" height="26" fill="#e6e6e6" stroke="#000000" stroke-width="1.5" id="casilla_12" />
  <circle cx="0" cy="0" r="8" fill="#ffffff" stroke="#000000" stroke-width="1" />
  <text x="0" y="0" class="sq-text">12</text>
</g>
<g transform="translate(687.10, 296.24)">
  <rect x="-13" y="-13" width="26" height="26" fill="#ffffff" stroke="#000000" stroke-width="1.5" id="casilla_10" />
  <text x="0" y="0" class="sq-text">10</text>
</g>
<g transform="translate(705.48, 302.13)">
  <rect x="-13" y="-13" width="26" height="26" fill="#ffffff" stroke="#000000" stroke-width="1.5" id="casilla_11" />
  <text x="0" y="0" class="sq-text">11</text>
</g>
<g transform="translate(736.04, 314.78)">
  <rect x="-13" y="-13" width="26" height="26" fill="#ffffff" stroke="#000000" stroke-width="1.5" id="casilla_13" />
  <text x="0" y="0" class="sq-text">13</text>
</g>
<g transform="translate(891.95, 479.07)">
  <rect x="-13" y="-13" width="26" height="26" fill="#e6e6e6" stroke="#000000" stroke-width="1.5" id="casilla_29" />
  <circle cx="0" cy="0" r="8" fill="#ffffff" stroke="#000000" stroke-width="1" />
  <text x="0" y="0" class="sq-text">29</text>
</g>
<g transform="translate(876.38, 446.80)">
  <rect x="-13" y="-13" width="26" height="26" fill="#ffffff" stroke="#000000" stroke-width="1.5" id="casilla_27" />
  <text x="0" y="0" class="sq-text">27</text>
</g>
<g transform="translate(885.22, 463.96)">
  <rect x="-13" y="-13" width="26" height="26" fill="#ffffff" stroke="#000000" stroke-width="1.5" id="casilla_28" />
  <text x="0" y="0" class="sq-text">28</text>
</g>
<g transform="translate(897.87, 494.52)">
  <rect x="-13" y="-13" width="26" height="26" fill="#ffffff" stroke="#000000" stroke-width="1.5" id="casilla_30" />
  <text x="0" y="0" class="sq-text">30</text>
</g>
<g transform="translate(891.95, 720.93)">
  <rect x="-13" y="-13" width="26" height="26" fill="#e6e6e6" stroke="#000000" stroke-width="1.5" id="casilla_46" />
  <circle cx="0" cy="0" r="8" fill="#ffffff" stroke="#000000" stroke-width="1" />
  <text x="0" y="0" class="sq-text">46</text>
</g>
<g transform="translate(903.76, 687.10)">
  <rect x="-13" y="-13" width="26" height="26" fill="#ffffff" stroke="#000000" stroke-width="1.5" id="casilla_44" />
  <text x="0" y="0" class="sq-text">44</text>
</g>
<g transform="translate(897.87, 705.48)">
  <rect x="-13" y="-13" width="26" height="26" fill="#ffffff" stroke="#000000" stroke-width="1.5" id="casilla_45" />
  <text x="0" y="0" class="sq-text">45</text>
</g>
<g transform="translate(885.22, 736.04)">
  <rect x="-13" y="-13" width="26" height="26" fill="#ffffff" stroke="#000000" stroke-width="1.5" id="casilla_47" />
  <text x="0" y="0" class="sq-text">47</text>
</g>
<g transform="translate(720.93, 891.95)">
  <rect x="-13" y="-13" width="26" height="26" fill="#e6e6e6" stroke="#000000" stroke-width="1.5" id="casilla_63" />
  <circle cx="0" cy="0" r="8" fill="#ffffff" stroke="#000000" stroke-width="1" />
  <text x="0" y="0" class="sq-text">63</text>
</g>
<g transform="translate(753.20, 876.38)">
  <rect x="-13" y="-13" width="26" height="26" fill="#ffffff" stroke="#000000" stroke-width="1.5" id="casilla_61" />
  <text x="0" y="0" class="sq-text">61</text>
</g>
<g transform="translate(736.04, 885.22)">
  <rect x="-13" y="-13" width="26" height="26" fill="#ffffff" stroke="#000000" stroke-width="1.5" id="casilla_62" />
  <text x="0" y="0" class="sq-text">62</text>
</g>
<g transform="translate(705.48, 897.87)">
  <rect x="-13" y="-13" width="26" height="26" fill="#ffffff" stroke="#000000" stroke-width="1.5" id="casilla_64" />
  <text x="0" y="0" class="sq-text">64</text>
</g>
<g transform="translate(479.07, 891.95)">
  <rect x="-13" y="-13" width="26" height="26" fill="#e6e6e6" stroke="#000000" stroke-width="1.5" id="casilla_80" />
  <circle cx="0" cy="0" r="8" fill="#ffffff" stroke="#000000" stroke-width="1" />
  <text x="0" y="0" class="sq-text">80</text>
</g>
<g transform="translate(512.90, 903.76)">
  <rect x="-13" y="-13" width="26" height="26" fill="#ffffff" stroke="#000000" stroke-width="1.5" id="casilla_78" />
  <text x="0" y="0" class="sq-text">78</text>
</g>
<g transform="translate(494.52, 897.87)">
  <rect x="-13" y="-13" width="26" height="26" fill="#ffffff" stroke="#000000" stroke-width="1.5" id="casilla_79" />
  <text x="0" y="0" class="sq-text">79</text>
</g>
<g transform="translate(463.96, 885.22)">
  <rect x="-13" y="-13" width="26" height="26" fill="#ffffff" stroke="#000000" stroke-width="1.5" id="casilla_81" />
  <text x="0" y="0" class="sq-text">81</text>
</g>
<g transform="translate(308.05, 720.93)">
  <rect x="-13" y="-13" width="26" height="26" fill="#e6e6e6" stroke="#000000" stroke-width="1.5" id="casilla_97" />
  <circle cx="0" cy="0" r="8" fill="#ffffff" stroke="#000000" stroke-width="1" />
  <text x="0" y="0" class="sq-text">97</text>
</g>
<g transform="translate(323.62, 753.20)">
  <rect x="-13" y="-13" width="26" height="26" fill="#ffffff" stroke="#000000" stroke-width="1.5" id="casilla_95" />
  <text x="0" y="0" class="sq-text">95</text>
</g>
<g transform="translate(314.78, 736.04)">
  <rect x="-13" y="-13" width="26" height="26" fill="#ffffff" stroke="#000000" stroke-width="1.5" id="casilla_96" />
  <text x="0" y="0" class="sq-text">96</text>
</g>
<g transform="translate(302.13, 705.48)">
  <rect x="-13" y="-13" width="26" height="26" fill="#ffffff" stroke="#000000" stroke-width="1.5" id="casilla_98" />
  <text x="0" y="0" class="sq-text">98</text>
</g>
<g transform="translate(308.05, 479.07)">
  <rect x="-13" y="-13" width="26" height="26" fill="#e6e6e6" stroke="#000000" stroke-width="1.5" id="casilla_114" />
  <circle cx="0" cy="0" r="8" fill="#ffffff" stroke="#000000" stroke-width="1" />
  <text x="0" y="0" class="sq-text">114</text>
</g>
<g transform="translate(296.24, 512.90)">
  <rect x="-13" y="-13" width="26" height="26" fill="#ffffff" stroke="#000000" stroke-width="1.5" id="casilla_112" />
  <text x="0" y="0" class="sq-text">112</text>
</g>
<g transform="translate(302.13, 494.52)">
  <rect x="-13" y="-13" width="26" height="26" fill="#ffffff" stroke="#000000" stroke-width="1.5" id="casilla_113" />
  <text x="0" y="0" class="sq-text">113</text>
</g>
<g transform="translate(314.78, 463.96)">
  <rect x="-13" y="-13" width="26" height="26" fill="#ffffff" stroke="#000000" stroke-width="1.5" id="casilla_115" />
  <text x="0" y="0" class="sq-text">115</text>
</g>
<g transform="translate(479.07, 308.05)">
  <rect x="-13" y="-13" width="26" height="26" fill="#e6e6e6" stroke="#000000" stroke-width="1.5" id="casilla_131" />
  <circle cx="0" cy="0" r="8" fill="#ffffff" stroke="#000000" stroke-width="1" />
  <text x="0" y="0" class="sq-text">131</text>
</g>
<g transform="translate(446.80, 323.62)">
  <rect x="-13" y="-13" width="26" height="26" fill="#ffffff" stroke="#000000" stroke-width="1.5" id="casilla_129" />
  <text x="0" y="0" class="sq-text">129</text>
</g>
<g transform="translate(463.96, 314.78)">
  <rect x="-13" y="-13" width="26" height="26" fill="#ffffff" stroke="#000000" stroke-width="1.5" id="casilla_130" />
  <text x="0" y="0" class="sq-text">130</text>
</g>
<g transform="translate(494.52, 302.13)">
  <rect x="-13" y="-13" width="26" height="26" fill="#ffffff" stroke="#000000" stroke-width="1.5" id="casilla_132" />
  <text x="0" y="0" class="sq-text">132</text>
</g>
</svg>